HIERARCHY
ROOT Hips
{
  OFFSET -31.5692 30.0904 122.763
  CHANNELS 6 Xposition Yposition Zposition Zrotation Xrotation Yrotation
  JOINT LeftUpLeg
  {
    OFFSET 8.64259 1.95398 -2.38835
    CHANNELS 3 Zrotation Xrotation Yrotation
    JOINT LeftLeg
    {
      OFFSET 43.7702 0 0
      CHANNELS 3 Zrotation Xrotation Yrotation
      JOINT LeftFoot
      {
        OFFSET 40.6238 0 0
        CHANNELS 3 Zrotation Xrotation Yrotation
        JOINT LeftToeBase
        {
          OFFSET 12.7242 0 0
          CHANNELS 3 Zrotation Xrotation Yrotation
          End Site
          {
            OFFSET 0 0 0
          }
        }
      }
    }
  }
  JOINT RightUpLeg
  {
    OFFSET -8.2249 1.95398 -2.59336
    CHANNELS 3 Zrotation Xrotation Yrotation
    JOINT RightLeg
    {
      OFFSET 43.5653 0 0
      CHANNELS 3 Zrotation Xrotation Yrotation
      JOINT RightFoot
      {
        OFFSET 40.6238 0 0
        CHANNELS 3 Zrotation Xrotation Yrotation
        JOINT RightToeBase
        {
          OFFSET 12.7242 0 0
          CHANNELS 3 Zrotation Xrotation Yrotation
          End Site
          {
            OFFSET 0 0 0
          }
        }
      }
    }
  }
  JOINT Spine
  {
    OFFSET 0.165834 0.87714 6.61349
    CHANNELS 3 Zrotation Xrotation Yrotation
    JOINT Spine1
    {
      OFFSET 7.38963 1.71661e-005 0
      CHANNELS 3 Zrotation Xrotation Yrotation
      JOINT Spine2
      {
        OFFSET 11.9445 1.14441e-005 0
        CHANNELS 3 Zrotation Xrotation Yrotation
        JOINT Spine3
        {
          OFFSET 14.7254 4.19617e-005 0
          CHANNELS 3 Zrotation Xrotation Yrotation
          JOINT Spine4
          {
            OFFSET 10.9679 0 0
            CHANNELS 3 Zrotation Xrotation Yrotation
            JOINT RightShoulder
            {
              OFFSET 2.46616 -1.6653 3.69651
              CHANNELS 3 Zrotation Xrotation Yrotation
              JOINT RightArm
              {
                OFFSET 13.0012 0 0
                CHANNELS 3 Zrotation Xrotation Yrotation
                JOINT RightForeArm
                {
                  OFFSET 28.7848 1.62311e-005 0
                  CHANNELS 3 Zrotation Xrotation Yrotation
                  JOINT RightHand
                  {
                    OFFSET 26.5688 1.62095e-005 0
                    CHANNELS 3 Zrotation Xrotation Yrotation
                    End Site
                    {
                      OFFSET 0 0 0
                    }
                  }
                }
              }
            }
            JOINT LeftShoulder
            {
              OFFSET 2.38034 -1.29275 -3.7523
              CHANNELS 3 Zrotation Xrotation Yrotation
              JOINT LeftArm
              {
                OFFSET 16.3182 6.07031e-005 0
                CHANNELS 3 Zrotation Xrotation Yrotation
                JOINT LeftForeArm
                {
                  OFFSET 27.0901 0 0
                  CHANNELS 3 Zrotation Xrotation Yrotation
                  JOINT LeftHand
                  {
                    OFFSET 24.5451 1.51738e-005 0
                    CHANNELS 3 Zrotation Xrotation Yrotation
                    End Site
                    {
                      OFFSET 0 0 0
                    }
                  }
                }
              }
            }
            JOINT Neck
            {
              OFFSET 5.0226 -0.0266342 0
              CHANNELS 3 Zrotation Xrotation Yrotation
              JOINT Head
              {
                OFFSET 6.69364 2.86102e-005 0
                CHANNELS 3 Zrotation Xrotation Yrotation
                End Site
                {
                  OFFSET 0 0 0
                }
              }
            }
          }
        }
      }
    }
  }
}
MOTION
Frames:	9
Frame Time:	0.0416667
27.1066 101.551 22.7737 -142.859 -82.1601 -143.838 -173.791 -2.27324 88.0387 -13.3217 -0.280783 -0.0674441 70.3906 5.82203 -2.05567 16.5891 -9.01143 6.20616 172.155 -1.89867 88.2294 -13.524 -10.0596 -0.972328 67.3415 -4.34801 1.18152 24.5204 0.894621 4.51485 0.468886 7.42768 -89.9921 12.0248 0.935991 -0.0863593 0.354151 0.931285 -0.127473 -22.1836 0.918663 0.198966 -2.17099 0.918667 0.198964 90.9017 -29.9555 -104.983 39.4757 -8.82531 -6.45667 7.73795 -34.3103 -12.6036 -22.8325 -0.450858 -9.33734 -87.4368 -52.3288 82.9609 -22.0443 14.3508 -14.0327 -5.90756 11.7269 -0.00906674 4.07547 -0.291304 -15.2652 1.5758 -0.55515 -2.53391 -3.39539 -0.163853 -2.75389 
27.1035 101.484 22.7547 -142.477 -82.0738 -143.425 -173.69 -2.05068 88.1167 -13.8517 -0.344793 -0.131199 70.6442 5.83038 -2.04584 16.7145 -8.91161 6.15478 171.994 -2.13236 88.116 -12.8768 -10.1159 -0.810702 67.378 -4.61796 1.19874 24.5372 0.832984 4.73686 0.460518 7.4212 -89.9892 12.032 0.920693 -0.0789345 0.361353 0.916336 -0.119386 -22.1763 0.901848 0.201446 -2.16369 0.901846 0.201439 90.8948 -30.1395 -104.931 39.436 -8.84827 -6.48162 7.4535 -35.1726 -12.9888 -23.5866 -0.461792 -9.37484 -87.4907 -52.1606 82.8542 -22.3265 14.1759 -13.9596 -5.69767 12.2899 -0.00939261 3.71412 -0.237079 -15.3514 1.43524 -0.586316 -2.61614 -3.52931 -0.18205 -2.63992 
27.0822 101.502 22.8042 -142.791 -81.9853 -143.851 -173.706 -2.34321 88.038 -13.5681 -0.381131 -0.146855 70.5892 5.7706 -2.45349 16.7596 -9.18876 6.7595 171.762 -2.13951 87.9183 -13.1458 -10.4811 -0.707548 67.223 -4.41264 1.55917 25.0422 0.843969 3.79525 0.428748 7.42536 -89.9708 12.0236 0.866212 -0.0362956 0.352932 0.86378 -0.0743863 -22.1844 0.837066 0.225731 -2.17178 0.837073 0.225735 90.7983 -30.0424 -105.158 39.6676 -8.81336 -6.31364 7.60577 -34.4288 -12.8048 -24.1091 -0.576981 -8.48093 -87.3675 -52.2034 83.042 -22.5073 14.1001 -13.9094 -5.43284 12.0661 -0.00970214 3.84867 -0.272385 -15.6054 1.49634 -0.965712 -3.09586 -3.43381 -0.483337 -2.6492 
26.9889 101.552 22.8535 -142.489 -82.1148 -143.482 -173.645 -2.40174 88.1837 -13.2182 -0.375825 -0.156791 70.4915 5.78642 -2.51204 16.6626 -9.21977 6.70658 171.743 -1.91198 88.0471 -13.5808 -10.5169 -0.606919 67.5296 -4.61383 1.00574 24.242 1.0131 4.51221 0.4218 7.40925 -89.965 12.0558 0.855129 -0.0238666 0.385118 0.853242 -0.0614864 -22.1522 0.822762 0.23425 -2.13954 0.822755 0.234248 90.9473 -29.9904 -104.88 39.8873 -8.97092 -6.20601 7.67713 -35.1636 -12.8026 -24.4158 -0.644666 -8.21768 -87.5296 -52.2431 82.811 -22.4022 14.1988 -13.7423 -5.43015 11.7412 -0.00997913 3.36437 -0.240174 -15.854 1.61723 -2.72018 -4.35012 -2.6212 -2.0441 -3.09395 
26.9352 101.532 22.9268 -142.305 -82.094 -143.294 -173.596 -2.38971 88.2364 -13.3586 -0.315525 -0.180089 70.5694 5.82721 -2.3358 16.6123 -9.02373 6.25782 171.817 -2.08905 88.1378 -13.3791 -10.3593 -0.649378 67.6719 -4.78253 0.814622 23.8935 1.07432 4.86526 0.431959 7.41901 -89.9465 12.0361 0.884051 0.0100759 0.365507 0.883637 -0.0288549 -22.1719 0.840147 0.275331 -2.15925 0.84014 0.275311 90.9283 -30.1011 -104.879 39.5619 -8.69703 -5.98261 7.22383 -34.451 -13.3133 -22.9278 -0.435627 -9.44934 -87.4548 -52.1431 82.9039 -21.9389 14.8669 -13.7371 -5.96009 11.2616 -0.0101826 3.54874 -0.265774 -15.5467 1.70988 -6.53834 -5.85732 -1.94375 -5.61358 -4.38205 
26.915 101.489 22.9705 -142.641 -82.3086 -143.628 -173.705 -2.06177 88.1788 -13.7473 -0.363277 -0.070627 70.7577 5.8537 -2.31216 16.625 -9.06024 6.34533 171.956 -2.07463 88.1404 -12.9471 -9.8017 -0.717049 67.2959 -4.5126 1.55426 25.1495 0.624797 4.52883 0.395349 7.40962 -89.9053 12.0545 0.830747 0.0980099 0.383872 0.834257 0.0613501 -22.1531 0.762883 0.343169 -2.14048 0.76288 0.34316 90.5615 -30.3396 -105.521 39.3887 -8.51204 -5.76498 7.32531 -34.0245 -13.052 -22.7237 -0.410632 -9.53149 -87.4415 -52.1254 82.9205 -21.8351 14.5656 -13.567 -6.17274 11.1446 -0.0102922 4.17632 -0.354698 -15.7003 0.470238 -12.1596 -8.73078 0.173856 -10.9551 -5.75244 
26.866 101.495 23.095 -143.799 -82.3643 -144.704 -173.65 -2.18377 88.3145 -13.7362 -0.197174 -0.0448906 70.8406 5.90366 -2.55335 16.7201 -9.03881 6.41532 171.891 -2.24719 88.2485 -13.0494 -10.017 -0.610316 67.4414 -4.64835 1.08706 24.5472 0.91813 4.36985 0.368826 7.43888 -89.9134 11.996 0.774197 0.0886252 0.325342 0.777343 0.054462 -22.2114 0.71176 0.317213 -2.19878 0.711766 0.317213 90.635 -29.6769 -105.617 39.9458 -8.50981 -5.74881 7.1032 -34.2723 -13.2239 -22.8216 -0.444493 -9.36553 -87.2698 -52.4553 83.2262 -21.5228 14.9067 -13.5728 -6.41929 10.922 -0.0102523 5.16277 -0.478513 -15.6872 -0.594278 -18.6157 -11.3082 1.23149 -17.2466 -8.06304 
26.8502 101.534 23.1984 -142.369 -82.355 -143.277 -173.702 -2.32461 88.2642 -13.3829 -0.254983 -0.00599875 70.747 5.88655 -2.3798 16.3005 -9.39173 6.61955 171.932 -2.12406 88.3012 -13.3352 -10.0526 -0.646466 67.5877 -4.69079 1.01453 24.2174 0.972511 4.72192 0.375953 7.45989 -89.9034 11.9538 0.793055 0.106838 0.283115 0.796987 0.0718229 -22.2537 0.724281 0.340261 -2.24105 0.724272 0.340245 90.7263 -29.961 -105.331 39.4163 -8.71247 -6.02829 7.08821 -34.6159 -13.4902 -22.7577 -0.594984 -8.51573 -87.5686 -51.7837 82.6762 -22.4539 14.8369 -12.9648 -6.00268 10.6665 -0.0100267 5.43088 -0.481377 -15.1613 -2.08182 -24.3866 -15.7204 2.38554 -22.6885 -8.11665 
26.8466 101.501 23.3163 -141.357 -82.7062 -142.165 -173.635 -1.81399 88.3844 -13.7423 0.00159836 -0.0630547 70.7849 5.79832 -2.07403 16.5493 -9.02896 6.19424 172.047 -2.20793 88.3946 -12.3897 -9.73687 -0.600169 67.1201 -4.49876 1.47884 24.9679 0.731376 4.40263 0.311847 7.45865 -89.9675 11.9603 0.635432 -0.00396858 0.28947 0.634631 -0.0319344 -22.2469 0.607238 0.187194 -2.23421 0.607238 0.187186 90.5483 -30.0172 -105.665 38.6673 -8.82114 -6.32109 7.46545 -34.1109 -13.2153 -22.7943 -0.500254 -8.98082 -87.3182 -51.5216 83.0026 -22.7712 15.1195 -13.1177 -6.21976 10.745 -0.00958842 5.24245 -0.453907 -15.1503 -2.17843 -28.352 -18.6516 1.78988 -26.2721 -7.85421 
